<?xml version="1.0" encoding="UTF-8"?>
<!-- Generator: Adobe Illustrator 16.0.4, SVG Export Plug-In . SVG Version: 6.00 Build 0)  -->
<!DOCTYPE svg PUBLIC "-//W3C//DTD SVG 1.0//EN" "http://www.w3.org/TR/2001/REC-SVG-20010904/DTD/svg10.dtd">
<svg version="1.0" id="Calque_1" xmlns="http://www.w3.org/2000/svg" xmlns:xlink="http://www.w3.org/1999/xlink" x="0px" y="0px" width="296px" height="105px" viewBox="0 0 296 105" enable-background="new 0 0 296 105" xml:space="preserve" data-iorad-extension="firefox">
<g>
	<circle fill="#C8910F" cx="147.779" cy="7.933" r="0.78"/>
	<polygon fill="#C8910F" points="147.779,31.964 128.122,40.15 128.122,40.15 167.438,40.15  "/>
	<path fill="#C8910F" d="M152.197,24.405v-3.45l-1.223-1.189v-4.217l0.602-0.597c-0.082-0.09-2.094-2.321-2.774-5.361h-2.067   c-0.654,2.915-2.529,5.086-2.755,5.339l-0.006,0.011l0.612,0.608v4.217l-1.224,1.189v3.45c-5.154,1.714-8.977,6.342-9.512,11.931   l13.423-5.589l0.506-0.211l0.508,0.211l13.423,5.589C161.176,30.747,157.352,26.119,152.197,24.405z M149.09,16.931   c0-0.227,0.078-0.543,0.484-0.543s0.484,0.321,0.484,0.543v3.474c-0.319-0.051-0.643-0.093-0.969-0.123V16.931z M147.127,16.707   c0-0.317,0.111-0.759,0.677-0.759c0.565,0,0.676,0.45,0.676,0.759v3.534c-0.225-0.01-0.45-0.017-0.677-0.017   c-0.227,0-0.452,0.007-0.676,0.017V16.707z M145.514,16.931c0-0.227,0.079-0.543,0.484-0.543s0.484,0.321,0.484,0.543v3.354   c-0.327,0.031-0.65,0.072-0.969,0.124V16.931z"/>
</g>
<g>
	<path fill="#004272" d="M8.811,85.839v0.798H1.746v-0.798l1.595-0.313c0.019-0.02,0.076-0.147,0.171-0.385s0.143-0.536,0.143-0.898   V70.485c0-0.171-0.019-0.332-0.057-0.484c-0.039-0.152-0.077-0.285-0.114-0.398c-0.057-0.133-0.105-0.266-0.143-0.398l-1.595-0.286   v-0.796h6.837c0.912,0,1.78,0.07,2.606,0.212c0.826,0.144,1.553,0.391,2.179,0.741c0.626,0.352,1.125,0.826,1.495,1.425   s0.555,1.354,0.555,2.265c0,0.987-0.199,1.818-0.598,2.492c-0.399,0.674-0.936,1.226-1.609,1.652   c-0.675,0.427-1.443,0.736-2.308,0.926c-0.864,0.19-1.752,0.285-2.664,0.285c-0.171-0.209-0.294-0.399-0.371-0.57   c-0.038-0.076-0.057-0.152-0.057-0.227c0.646-0.076,1.234-0.187,1.766-0.328c0.532-0.144,0.987-0.375,1.367-0.698   s0.674-0.755,0.884-1.296c0.208-0.541,0.313-1.258,0.313-2.15c0-1.026-0.299-1.881-0.897-2.564   c-0.599-0.684-1.496-1.025-2.692-1.025H6.874v14.982c0,0.362,0.047,0.666,0.142,0.913c0.057,0.133,0.114,0.255,0.171,0.37   L8.811,85.839z"/>
	<path fill="#004272" d="M30.015,83.901c0.134,0.342,0.257,0.624,0.371,0.842c0.114,0.219,0.251,0.398,0.414,0.541   c0.161,0.143,0.366,0.256,0.612,0.342c0.247,0.086,0.579,0.156,0.997,0.214v0.798h-7.549v-0.77c0.437,0,0.817-0.057,1.14-0.172   c0.266-0.096,0.484-0.25,0.655-0.471c0.17-0.216,0.18-0.535,0.028-0.953c-0.285-0.777-0.574-1.57-0.869-2.378   c-0.294-0.808-0.583-1.591-0.868-2.351h-5.697c-0.305,0.76-0.599,1.539-0.883,2.336c-0.285,0.798-0.56,1.596-0.826,2.393   c-0.114,0.342-0.128,0.608-0.042,0.798c0.085,0.19,0.228,0.341,0.427,0.456c0.199,0.113,0.437,0.189,0.712,0.228   s0.537,0.067,0.784,0.086v0.798h-6.153v-0.798c0.247,0.038,0.503,0.01,0.769-0.086c0.228-0.095,0.475-0.251,0.741-0.47   c0.266-0.219,0.512-0.574,0.74-1.068c1.215-2.564,2.346-5.222,3.39-7.977c1.044-2.752,2.08-5.432,3.105-8.033   c0.228-0.057,0.446-0.122,0.655-0.199c0.19-0.057,0.389-0.107,0.598-0.156c0.209-0.047,0.399-0.071,0.57-0.071L30.015,83.901z    M24.545,78.433c-0.266-0.854-0.541-1.7-0.825-2.535c-0.248-0.722-0.509-1.478-0.784-2.265c-0.276-0.789-0.527-1.486-0.755-2.095   c-0.399,1.159-0.822,2.308-1.268,3.448c-0.446,1.139-0.869,2.288-1.268,3.446H24.545z"/>
	<path fill="#004272" d="M52.385,68.122v0.796c-0.209,0.021-0.441,0.039-0.698,0.058c-0.257,0.02-0.494,0.071-0.712,0.157   c-0.219,0.085-0.404,0.231-0.556,0.44c-0.152,0.211-0.227,0.522-0.227,0.941v16.123H48.54L37.43,72.479v11.793   c0,0.342,0.08,0.613,0.242,0.812s0.36,0.355,0.599,0.47c0.237,0.114,0.502,0.189,0.797,0.228c0.294,0.039,0.584,0.067,0.869,0.086   v0.77h-6.039v-0.77c0.247,0,0.499-0.01,0.755-0.028c0.256-0.019,0.479-0.081,0.669-0.186s0.346-0.266,0.471-0.484   c0.123-0.218,0.185-0.517,0.185-0.897V71.083c0-0.36-0.085-0.669-0.256-0.927c-0.171-0.256-0.361-0.47-0.569-0.64   c-0.228-0.209-0.495-0.381-0.798-0.513c-0.095-0.115-0.157-0.219-0.186-0.314c-0.028-0.094-0.062-0.189-0.1-0.285   c-0.039-0.094-0.057-0.189-0.057-0.283h3.931l10.796,13.786V70.514c0-0.342-0.076-0.617-0.228-0.827   c-0.152-0.208-0.341-0.365-0.57-0.47c-0.228-0.104-0.489-0.175-0.783-0.213c-0.295-0.039-0.584-0.066-0.869-0.087v-0.796H52.385z"/>
	<path fill="#004272" d="M70.656,68.122c0,0.379,0.014,0.754,0.042,1.125c0.028,0.37,0.061,0.697,0.1,0.982   c0.057,0.342,0.114,0.665,0.171,0.969c-0.361,0.133-0.665,0.229-0.912,0.283c-0.133,0.039-0.247,0.058-0.342,0.058   c-0.02-0.188-0.048-0.37-0.085-0.54c-0.038-0.152-0.077-0.304-0.114-0.457c-0.038-0.15-0.104-0.274-0.199-0.369   c-0.266-0.381-0.631-0.627-1.096-0.741c-0.466-0.114-0.983-0.171-1.553-0.171h-2.706v15.012c0,0.361,0.047,0.666,0.142,0.912   c0.057,0.133,0.114,0.256,0.171,0.37l1.652,0.313v0.77h-7.093v-0.77c-0.038,0-0.019-0.01,0.057-0.028   c0.075-0.019,0.228-0.054,0.456-0.1c0.228-0.048,0.57-0.108,1.025-0.186c0.02-0.019,0.076-0.147,0.171-0.385   c0.095-0.237,0.142-0.536,0.142-0.897V69.26h-2.706c-0.589,0-1.101,0.057-1.538,0.171s-0.788,0.36-1.054,0.741   c-0.095,0.095-0.156,0.219-0.185,0.369c-0.028,0.153-0.062,0.305-0.1,0.457c-0.038,0.17-0.057,0.352-0.057,0.54   c-0.114,0-0.247-0.019-0.398-0.058c-0.133-0.036-0.28-0.07-0.442-0.1c-0.162-0.027-0.318-0.08-0.47-0.156   c0.038-0.303,0.085-0.626,0.143-0.967c0.038-0.285,0.075-0.613,0.113-0.984c0.038-0.369,0.057-0.754,0.057-1.152H70.656z"/>
	<path fill="#004272" d="M90.79,85.839v0.798h-7.064v-0.798l1.595-0.313c0.019-0.02,0.076-0.147,0.171-0.385   c0.095-0.237,0.143-0.536,0.143-0.898v-6.808h-7.891v6.808c0,0.362,0.047,0.666,0.143,0.913c0.057,0.133,0.114,0.255,0.171,0.37   l1.624,0.313v0.798h-7.064v-0.798l1.595-0.313c0.019-0.02,0.075-0.147,0.171-0.385c0.095-0.237,0.143-0.536,0.143-0.898V70.485   c0-0.171-0.02-0.332-0.057-0.484c-0.038-0.152-0.077-0.285-0.114-0.398c-0.057-0.133-0.104-0.266-0.142-0.398l-1.595-0.286v-0.796   h7.064v0.796l-1.652,0.314c-0.057,0.113-0.104,0.237-0.142,0.37c-0.096,0.246-0.143,0.541-0.143,0.883v5.84h7.891v-5.84   c0-0.171-0.02-0.332-0.057-0.484c-0.038-0.152-0.076-0.285-0.114-0.398c-0.057-0.133-0.104-0.266-0.142-0.398l-1.595-0.286v-0.796   h7.064v0.796l-1.652,0.314c-0.057,0.113-0.104,0.237-0.142,0.37c-0.096,0.246-0.143,0.541-0.143,0.883v13.758   c0,0.362,0.047,0.666,0.143,0.913c0.057,0.133,0.114,0.255,0.171,0.37L90.79,85.839z"/>
	<path fill="#004272" d="M106.819,83.561c-0.057,0.322-0.114,0.654-0.171,0.996c-0.038,0.305-0.071,0.632-0.1,0.982   c-0.028,0.352-0.043,0.717-0.043,1.098H93.117v-0.77l1.567-0.313c0.019-0.019,0.076-0.147,0.17-0.385   c0.095-0.237,0.143-0.536,0.143-0.897V70.514c0-0.172-0.02-0.332-0.057-0.484c-0.039-0.152-0.076-0.285-0.114-0.399   c-0.057-0.133-0.104-0.267-0.143-0.398l-1.567-0.37v-0.74h12.078c0.019,0.417,0.057,0.84,0.114,1.268   c0.057,0.427,0.114,0.812,0.17,1.152c0.076,0.4,0.152,0.789,0.228,1.168c-0.246,0-0.451-0.01-0.612-0.027   c-0.162-0.019-0.29-0.048-0.385-0.086c-0.114-0.038-0.209-0.086-0.285-0.143c-0.038-0.152-0.085-0.313-0.142-0.484   c-0.095-0.304-0.228-0.569-0.399-0.797c-0.133-0.19-0.309-0.342-0.527-0.457c-0.219-0.113-0.446-0.204-0.684-0.27   c-0.237-0.066-0.47-0.114-0.697-0.143c-0.228-0.029-0.427-0.043-0.599-0.043h-3.133v7.064h3.874c0.398,0,0.645-0.229,0.74-0.684   c0.095-0.455,0.161-1.073,0.199-1.852l0.969,0.143v5.867l-0.969,0.029c-0.038-0.703-0.109-1.277-0.213-1.725   c-0.104-0.444-0.347-0.669-0.726-0.669h-3.874v8.091h4.415c0.17,0,0.375-0.01,0.612-0.029c0.237-0.018,0.479-0.051,0.726-0.1   c0.247-0.047,0.479-0.123,0.698-0.228c0.219-0.104,0.395-0.251,0.528-0.44c0.17-0.229,0.285-0.514,0.341-0.855   c0.038-0.17,0.066-0.352,0.085-0.541L106.819,83.561z M98.785,66.782l1.025,0.342c0.38-0.379,0.77-0.812,1.168-1.296   c0.399-0.484,0.76-0.936,1.083-1.354c0.379-0.493,0.75-0.978,1.111-1.452l-1.994-0.998L98.785,66.782z"/>
	<path fill="#004272" d="M117.563,67.75c1.31,0,2.536,0.214,3.675,0.641c1.14,0.427,2.126,1.045,2.962,1.852   c0.835,0.808,1.491,1.786,1.965,2.935c0.475,1.149,0.713,2.435,0.713,3.859c0,1.595-0.309,3.011-0.926,4.245   s-1.419,2.27-2.407,3.104c-0.987,0.835-2.108,1.472-3.361,1.909c-1.254,0.436-2.517,0.654-3.789,0.654   c-1.12,0-2.212-0.219-3.275-0.654c-1.064-0.438-2.019-1.07-2.863-1.896c-0.845-0.825-1.524-1.832-2.036-3.019   c-0.513-1.188-0.77-2.541-0.77-4.059c0-1.425,0.276-2.727,0.827-3.904c0.55-1.177,1.286-2.188,2.208-3.033   c0.921-0.845,1.994-1.496,3.219-1.951C114.929,67.978,116.214,67.75,117.563,67.75z M123.146,77.008   c0-1.045-0.128-2.051-0.385-3.02s-0.641-1.828-1.153-2.578c-0.513-0.75-1.145-1.348-1.895-1.794c-0.75-0.446-1.619-0.67-2.606-0.67   c-0.836,0-1.619,0.214-2.35,0.642c-0.731,0.427-1.372,1.02-1.923,1.78c-0.551,0.759-0.983,1.647-1.296,2.663   c-0.314,1.017-0.47,2.104-0.47,3.262c0,0.854,0.124,1.78,0.37,2.777c0.247,0.996,0.613,1.913,1.097,2.75   c0.485,0.835,1.092,1.533,1.824,2.093c0.73,0.561,1.581,0.84,2.549,0.84c0.798,0,1.571-0.189,2.322-0.569   c0.75-0.38,1.414-0.941,1.994-1.682c0.579-0.74,1.044-1.656,1.396-2.748C122.97,79.663,123.146,78.414,123.146,77.008z"/>
	<path fill="#004272" d="M146.356,68.122v0.796c-0.209,0.021-0.441,0.039-0.698,0.058c-0.256,0.02-0.493,0.071-0.711,0.157   c-0.219,0.085-0.404,0.231-0.556,0.44c-0.152,0.211-0.227,0.522-0.227,0.941v16.123h-1.653l-11.109-14.158v11.793   c0,0.342,0.081,0.613,0.242,0.812s0.36,0.355,0.599,0.47c0.237,0.114,0.502,0.189,0.797,0.228c0.294,0.039,0.584,0.067,0.869,0.086   v0.77h-6.039v-0.77c0.247,0,0.499-0.01,0.755-0.028c0.256-0.019,0.479-0.081,0.669-0.186c0.189-0.104,0.346-0.266,0.47-0.484   c0.123-0.218,0.185-0.517,0.185-0.897V71.083c0-0.36-0.085-0.669-0.256-0.927c-0.171-0.256-0.361-0.47-0.57-0.64   c-0.228-0.209-0.494-0.381-0.797-0.513c-0.095-0.115-0.157-0.219-0.186-0.314c-0.028-0.094-0.062-0.189-0.1-0.285   c-0.039-0.094-0.057-0.189-0.057-0.283h3.931l10.796,13.786V70.514c0-0.342-0.076-0.617-0.228-0.827   c-0.152-0.208-0.342-0.365-0.569-0.47c-0.229-0.104-0.489-0.175-0.784-0.213c-0.294-0.039-0.584-0.066-0.869-0.087v-0.796H146.356z   "/>
	<path fill="#004272" d="M157.58,71.824c0,0.323,0.09,0.646,0.27,0.969c0.181,0.323,0.422,0.642,0.727,0.954   c0.305,0.313,0.65,0.618,1.039,0.912c0.391,0.294,0.793,0.584,1.212,0.868c0.569,0.381,1.148,0.788,1.737,1.225   c0.588,0.437,1.115,0.911,1.581,1.425c0.465,0.512,0.85,1.068,1.154,1.666c0.302,0.599,0.455,1.25,0.455,1.952   c0,0.778-0.153,1.485-0.455,2.122c-0.305,0.637-0.747,1.183-1.325,1.638c-0.58,0.456-1.292,0.808-2.137,1.054   c-0.846,0.246-1.818,0.371-2.919,0.371c-0.894,0-1.614-0.048-2.165-0.143c-0.552-0.096-0.988-0.209-1.311-0.342   c-0.361-0.152-0.637-0.324-0.826-0.514c0-0.512,0.01-1.006,0.028-1.48c0-0.38,0.004-0.765,0.014-1.154   c0.01-0.389-0.004-0.659-0.042-0.811c0.208-0.02,0.398-0.02,0.57,0c0.17,0.018,0.303,0.047,0.398,0.084   c0.113,0.038,0.208,0.086,0.283,0.143c0.02,0.229,0.076,0.518,0.172,0.869s0.262,0.693,0.498,1.025   c0.237,0.332,0.561,0.612,0.969,0.84c0.408,0.229,0.945,0.343,1.61,0.343c0.987,0,1.771-0.313,2.349-0.94   c0.58-0.627,0.869-1.424,0.869-2.393c0-0.532-0.109-1.017-0.327-1.453c-0.219-0.437-0.509-0.844-0.868-1.225   c-0.361-0.379-0.774-0.735-1.24-1.068c-0.465-0.332-0.936-0.67-1.41-1.011c-0.512-0.343-1.016-0.698-1.509-1.068   c-0.494-0.37-0.931-0.759-1.312-1.169c-0.379-0.407-0.688-0.844-0.925-1.311c-0.237-0.465-0.356-0.963-0.356-1.495   c0-0.778,0.189-1.472,0.57-2.079c0.379-0.607,0.868-1.126,1.467-1.553c0.598-0.427,1.271-0.75,2.021-0.969   c0.751-0.218,1.506-0.327,2.266-0.327c0.722,0,1.344,0.052,1.866,0.157c0.522,0.104,0.953,0.223,1.296,0.355   c0.398,0.152,0.73,0.322,0.998,0.514c-0.02,0.588-0.035,1.072-0.045,1.453c-0.009,0.379-0.014,0.754-0.014,1.123   c0,0.371,0.01,0.643,0.029,0.812c-0.209,0.057-0.4,0.082-0.57,0.072c-0.171-0.01-0.312-0.034-0.427-0.072   c-0.134-0.037-0.257-0.094-0.37-0.17c0-0.36-0.049-0.723-0.144-1.082c-0.095-0.361-0.261-0.689-0.497-0.984   c-0.238-0.293-0.57-0.531-0.998-0.711c-0.427-0.182-0.975-0.271-1.637-0.271c-0.704,0-1.316,0.225-1.838,0.67   C157.84,70.091,157.58,70.817,157.58,71.824z"/>
	<path fill="#004272" d="M176.939,67.75c1.31,0,2.535,0.214,3.674,0.641s2.127,1.045,2.963,1.852   c0.835,0.808,1.49,1.786,1.965,2.935c0.475,1.149,0.713,2.435,0.713,3.859c0,1.595-0.309,3.011-0.926,4.245   c-0.618,1.234-1.42,2.27-2.408,3.104c-0.987,0.835-2.107,1.472-3.359,1.909c-1.254,0.436-2.518,0.654-3.791,0.654   c-1.12,0-2.211-0.219-3.275-0.654c-1.062-0.438-2.018-1.07-2.862-1.896s-1.524-1.832-2.037-3.019   c-0.513-1.188-0.769-2.541-0.769-4.059c0-1.425,0.275-2.727,0.826-3.904c0.551-1.177,1.286-2.188,2.207-3.033   c0.922-0.845,1.994-1.496,3.219-1.951C174.303,67.978,175.59,67.75,176.939,67.75z M182.521,77.008c0-1.045-0.128-2.051-0.385-3.02   c-0.256-0.969-0.641-1.828-1.154-2.578c-0.512-0.75-1.143-1.348-1.894-1.794c-0.75-0.446-1.619-0.67-2.606-0.67   c-0.835,0-1.619,0.214-2.35,0.642c-0.731,0.427-1.373,1.02-1.922,1.78c-0.552,0.759-0.984,1.647-1.297,2.663   c-0.313,1.017-0.471,2.104-0.471,3.262c0,0.854,0.123,1.78,0.371,2.777c0.246,0.996,0.611,1.913,1.096,2.75   c0.484,0.835,1.093,1.533,1.824,2.093c0.73,0.561,1.58,0.84,2.549,0.84c0.798,0,1.571-0.189,2.321-0.569   c0.751-0.38,1.415-0.941,1.993-1.682c0.58-0.74,1.046-1.656,1.396-2.748C182.346,79.663,182.521,78.414,182.521,77.008z"/>
	<path fill="#004272" d="M194.543,85.839v0.798h-7.064v-0.798l1.595-0.313c0.019-0.02,0.075-0.147,0.17-0.385   c0.096-0.237,0.144-0.536,0.144-0.898V70.485c0-0.171-0.02-0.332-0.057-0.484c-0.039-0.152-0.077-0.285-0.115-0.398   c-0.057-0.133-0.104-0.266-0.142-0.398l-1.595-0.286v-0.796h6.836c1.025,0,1.955,0.08,2.791,0.241s1.553,0.423,2.15,0.783   c0.6,0.361,1.064,0.836,1.396,1.425s0.498,1.32,0.498,2.193c0,0.836-0.185,1.533-0.555,2.094c-0.371,0.561-0.808,1.012-1.311,1.354   c-0.504,0.341-1.002,0.594-1.495,0.754c-0.495,0.162-0.864,0.271-1.112,0.328c0.477,0.171,0.894,0.432,1.254,0.783   c0.361,0.352,0.684,0.75,0.969,1.196s0.537,0.925,0.756,1.438c0.217,0.513,0.431,1.016,0.641,1.51   c0.171,0.437,0.351,0.869,0.541,1.296c0.189,0.428,0.398,0.812,0.627,1.153c0.227,0.342,0.474,0.623,0.74,0.84   c0.266,0.219,0.551,0.329,0.854,0.329l-0.284,0.798h-2.905c-0.57,0-1.035-0.219-1.396-0.656c-0.359-0.437-0.67-0.978-0.924-1.623   c-0.258-0.646-0.486-1.354-0.686-2.123s-0.422-1.477-0.668-2.121c-0.248-0.646-0.542-1.188-0.885-1.624   c-0.341-0.437-0.768-0.655-1.281-0.655l-0.484-0.939c0.531-0.038,1.059-0.144,1.582-0.313c0.521-0.171,0.986-0.417,1.395-0.741   c0.408-0.323,0.736-0.73,0.983-1.225c0.246-0.494,0.37-1.082,0.37-1.766c0-0.514-0.09-0.988-0.271-1.424   c-0.18-0.438-0.432-0.818-0.754-1.141c-0.323-0.322-0.727-0.579-1.21-0.769c-0.485-0.19-1.022-0.285-1.61-0.285h-1.424v15.011   c0,0.362,0.047,0.666,0.142,0.913c0.058,0.133,0.114,0.255,0.172,0.37L194.543,85.839z"/>
	<path fill="#004272" d="M217.101,72.877c0,0.324-0.042,0.67-0.128,1.041c-0.086,0.369-0.242,0.726-0.471,1.068   c-0.229,0.341-0.531,0.654-0.912,0.939c-0.379,0.285-0.863,0.504-1.453,0.655c0.665,0.058,1.25,0.251,1.752,0.584   c0.504,0.331,0.927,0.726,1.268,1.183c0.343,0.455,0.6,0.944,0.77,1.467c0.172,0.521,0.258,1.01,0.258,1.467   c0,1.062-0.172,1.941-0.514,2.635s-0.807,1.239-1.396,1.638c-0.588,0.398-1.286,0.679-2.092,0.841   c-0.809,0.161-1.678,0.242-2.607,0.242h-7.207v-0.74l1.566-0.343c0.02-0.038,0.076-0.176,0.171-0.413s0.144-0.536,0.144-0.898   V70.514c0-0.172-0.016-0.332-0.043-0.484c-0.029-0.152-0.062-0.285-0.101-0.399c-0.058-0.133-0.104-0.267-0.142-0.398l-1.596-0.343   v-0.768h6.096c0.912,0,1.771,0.074,2.578,0.228c0.807,0.151,1.51,0.412,2.107,0.783c0.599,0.369,1.073,0.859,1.424,1.467   C216.925,71.208,217.101,71.965,217.101,72.877z M209.523,69.26v7.036h0.455c2.602,0,3.902-1.149,3.902-3.446   c0-0.514-0.066-0.988-0.199-1.424c-0.133-0.438-0.342-0.818-0.626-1.141c-0.285-0.322-0.646-0.574-1.083-0.755   s-0.949-0.271-1.538-0.271H209.523z M211.545,85.497c0.552,0,1.021-0.118,1.411-0.355c0.389-0.237,0.706-0.541,0.954-0.911   c0.246-0.37,0.428-0.788,0.541-1.254s0.17-0.927,0.17-1.382c0-0.266-0.038-0.631-0.113-1.096c-0.076-0.466-0.242-0.927-0.498-1.383   c-0.256-0.455-0.631-0.85-1.125-1.182s-1.168-0.499-2.023-0.499h-1.338v8.062H211.545z"/>
	<path fill="#004272" d="M229.365,67.75c1.311,0,2.536,0.214,3.675,0.641c1.14,0.427,2.127,1.045,2.964,1.852   c0.835,0.808,1.489,1.786,1.965,2.935c0.474,1.149,0.713,2.435,0.713,3.859c0,1.595-0.31,3.011-0.927,4.245s-1.42,2.27-2.407,3.104   s-2.107,1.472-3.361,1.909c-1.253,0.436-2.517,0.654-3.789,0.654c-1.12,0-2.212-0.219-3.275-0.654   c-1.063-0.438-2.018-1.07-2.862-1.896s-1.524-1.832-2.037-3.019c-0.513-1.188-0.77-2.541-0.77-4.059   c0-1.425,0.275-2.727,0.827-3.904c0.551-1.177,1.286-2.188,2.207-3.033c0.921-0.845,1.994-1.496,3.219-1.951   C226.73,67.978,228.017,67.75,229.365,67.75z M234.949,77.008c0-1.045-0.128-2.051-0.385-3.02s-0.641-1.828-1.154-2.578   c-0.512-0.75-1.144-1.348-1.894-1.794c-0.751-0.446-1.62-0.67-2.606-0.67c-0.836,0-1.619,0.214-2.351,0.642   c-0.73,0.427-1.372,1.02-1.923,1.78c-0.551,0.759-0.982,1.647-1.295,2.663c-0.313,1.017-0.471,2.104-0.471,3.262   c0,0.854,0.123,1.78,0.371,2.777c0.246,0.996,0.611,1.913,1.096,2.75c0.484,0.835,1.093,1.533,1.824,2.093   c0.73,0.561,1.58,0.84,2.549,0.84c0.797,0,1.57-0.189,2.321-0.569c0.75-0.38,1.414-0.941,1.993-1.682   c0.58-0.74,1.046-1.656,1.396-2.748C234.773,79.663,234.949,78.414,234.949,77.008z"/>
	<path fill="#004272" d="M258.158,68.122v0.796c-0.208,0.021-0.44,0.039-0.697,0.058c-0.256,0.02-0.493,0.071-0.712,0.157   c-0.219,0.085-0.404,0.231-0.555,0.44c-0.153,0.211-0.229,0.522-0.229,0.941v16.123h-1.652l-11.109-14.158v11.793   c0,0.342,0.08,0.613,0.242,0.812c0.161,0.199,0.36,0.355,0.598,0.47s0.503,0.189,0.798,0.228c0.294,0.039,0.584,0.067,0.868,0.086   v0.77h-6.038v-0.77c0.246,0,0.498-0.01,0.755-0.028c0.256-0.019,0.479-0.081,0.67-0.186c0.189-0.104,0.346-0.266,0.47-0.484   c0.123-0.218,0.185-0.517,0.185-0.897V71.083c0-0.36-0.085-0.669-0.256-0.927c-0.171-0.256-0.361-0.47-0.569-0.64   c-0.229-0.209-0.494-0.381-0.798-0.513c-0.096-0.115-0.156-0.219-0.186-0.314c-0.029-0.094-0.062-0.189-0.1-0.285   c-0.038-0.094-0.058-0.189-0.058-0.283h3.932l10.796,13.786V70.514c0-0.342-0.076-0.617-0.229-0.827   c-0.151-0.208-0.341-0.365-0.569-0.47c-0.228-0.104-0.489-0.175-0.783-0.213c-0.295-0.039-0.584-0.066-0.869-0.087v-0.796H258.158z   "/>
	<path fill="#004272" d="M278.41,68.122v0.796c-0.21,0.021-0.442,0.039-0.698,0.058c-0.256,0.02-0.494,0.071-0.712,0.157   c-0.219,0.085-0.404,0.231-0.556,0.44c-0.152,0.211-0.228,0.522-0.228,0.941v16.123h-1.652l-11.109-14.158v11.793   c0,0.342,0.08,0.613,0.241,0.812s0.36,0.355,0.6,0.47c0.236,0.114,0.503,0.189,0.797,0.228c0.294,0.039,0.584,0.067,0.869,0.086   v0.77h-6.04v-0.77c0.248,0,0.499-0.01,0.755-0.028c0.258-0.019,0.479-0.081,0.67-0.186c0.189-0.104,0.347-0.266,0.471-0.484   c0.123-0.218,0.185-0.517,0.185-0.897V71.083c0-0.36-0.085-0.669-0.257-0.927c-0.17-0.256-0.36-0.47-0.569-0.64   c-0.228-0.209-0.494-0.381-0.798-0.513c-0.095-0.115-0.156-0.219-0.186-0.314c-0.027-0.094-0.062-0.189-0.1-0.285   c-0.037-0.094-0.057-0.189-0.057-0.283h3.931l10.798,13.786V70.514c0-0.342-0.078-0.617-0.229-0.827   c-0.152-0.208-0.342-0.365-0.57-0.47s-0.489-0.175-0.783-0.213c-0.294-0.039-0.584-0.066-0.868-0.087v-0.796H278.41z"/>
	<path fill="#004272" d="M294.168,83.561c-0.057,0.322-0.114,0.654-0.171,0.996c-0.038,0.305-0.071,0.632-0.1,0.982   c-0.028,0.352-0.043,0.717-0.043,1.098h-13.388v-0.77l1.565-0.313c0.02-0.019,0.077-0.147,0.172-0.385   c0.096-0.237,0.142-0.536,0.142-0.897V70.514c0-0.172-0.019-0.332-0.056-0.484c-0.039-0.152-0.076-0.285-0.114-0.399   c-0.057-0.133-0.105-0.267-0.144-0.398l-1.565-0.37v-0.74h12.078c0.019,0.417,0.057,0.84,0.113,1.268   c0.058,0.427,0.113,0.812,0.171,1.152c0.075,0.4,0.151,0.789,0.228,1.168c-0.246,0-0.451-0.01-0.611-0.027   c-0.163-0.019-0.29-0.048-0.385-0.086c-0.114-0.038-0.209-0.086-0.285-0.143c-0.038-0.152-0.085-0.313-0.143-0.484   c-0.096-0.304-0.228-0.569-0.398-0.797c-0.133-0.19-0.31-0.342-0.527-0.457c-0.219-0.113-0.447-0.204-0.684-0.27   c-0.238-0.066-0.47-0.114-0.698-0.143c-0.228-0.029-0.428-0.043-0.599-0.043h-3.133v7.064h3.874c0.398,0,0.646-0.229,0.74-0.684   c0.096-0.455,0.161-1.073,0.2-1.852l0.968,0.143v5.867l-0.968,0.029c-0.039-0.703-0.109-1.277-0.214-1.725   c-0.104-0.444-0.347-0.669-0.727-0.669h-3.874v8.091h4.415c0.171,0,0.375-0.01,0.613-0.029c0.237-0.018,0.479-0.051,0.726-0.1   c0.247-0.047,0.479-0.123,0.698-0.228c0.218-0.104,0.394-0.251,0.526-0.44c0.172-0.229,0.285-0.514,0.343-0.855   c0.037-0.17,0.065-0.352,0.085-0.541L294.168,83.561z"/>
</g>
<rect x="70.699" y="95.954" fill="#C8910F" width="154.162" height="0.986"/>
<g>
	<path fill="#004272" d="M70.726,49.963c0-0.131,0.117-0.248,0.249-0.248h0.495c0.144,0,0.248,0.117,0.248,0.248v5.439   c0,1.487,0.927,2.649,2.453,2.649c1.539,0,2.479-1.135,2.479-2.623v-5.465c0-0.131,0.104-0.248,0.248-0.248h0.495   c0.131,0,0.249,0.117,0.249,0.248v5.518c0,1.982-1.409,3.496-3.47,3.496c-2.048,0-3.444-1.514-3.444-3.496V49.963z"/>
	<path fill="#004272" d="M82.457,49.819c0-0.131,0.118-0.235,0.248-0.235h0.326l5.884,7.333h0.027v-6.954   c0-0.131,0.104-0.248,0.248-0.248h0.457c0.13,0,0.248,0.116,0.248,0.248v8.78c0,0.13-0.118,0.234-0.248,0.234H89.41l-5.988-7.475   h-0.013v7.096c0,0.131-0.104,0.248-0.248,0.248h-0.457c-0.13,0-0.248-0.117-0.248-0.248V49.819z"/>
	<path fill="#004272" d="M94.827,49.963c0-0.131,0.118-0.248,0.248-0.248h0.522c0.13,0,0.248,0.117,0.248,0.248v8.635   c0,0.131-0.118,0.248-0.248,0.248h-0.522c-0.13,0-0.248-0.117-0.248-0.248V49.963z"/>
	<path fill="#004272" d="M99.538,50.054c-0.078-0.17,0.026-0.339,0.222-0.339h0.522c0.117,0,0.195,0.078,0.221,0.144l3.249,7.305   h0.053l3.248-7.305c0.026-0.065,0.117-0.144,0.221-0.144h0.522c0.196,0,0.301,0.169,0.222,0.339l-3.965,8.778   c-0.04,0.08-0.118,0.145-0.223,0.145h-0.13c-0.091,0-0.183-0.064-0.221-0.145L99.538,50.054z"/>
	<path fill="#004272" d="M111.712,49.963c0-0.131,0.104-0.248,0.248-0.248h5.14c0.143,0,0.249,0.117,0.249,0.248v0.378   c0,0.13-0.105,0.248-0.249,0.248h-4.384v3.183h3.745c0.13,0,0.248,0.117,0.248,0.248v0.379c0,0.143-0.118,0.247-0.248,0.247h-3.745   v3.327h4.384c0.143,0,0.249,0.116,0.249,0.248v0.377c0,0.131-0.105,0.248-0.249,0.248h-5.14c-0.144,0-0.248-0.117-0.248-0.248   V49.963z"/>
	<path fill="#004272" d="M125.27,54.411c1.004,0,1.878-0.834,1.878-1.904c0-0.992-0.874-1.839-1.878-1.839h-2.532v3.744H125.27z    M121.708,49.963c0-0.131,0.104-0.248,0.249-0.248h3.378c1.566,0,2.845,1.226,2.845,2.779c0,1.2-0.797,2.204-1.932,2.661   l1.788,3.314c0.091,0.168,0,0.377-0.222,0.377h-0.666c-0.117,0-0.182-0.065-0.208-0.117l-1.735-3.457h-2.492v3.326   c0,0.131-0.118,0.248-0.248,0.248h-0.509c-0.144,0-0.249-0.117-0.249-0.248V49.963z"/>
	<path fill="#004272" d="M132.017,57.477c0.066-0.078,0.131-0.17,0.196-0.248c0.131-0.169,0.274-0.274,0.457-0.117   c0.091,0.078,1.043,0.991,2.204,0.991c1.057,0,1.749-0.665,1.749-1.435c0-0.901-0.783-1.436-2.283-2.062   c-1.435-0.625-2.296-1.212-2.296-2.7c0-0.887,0.705-2.322,2.778-2.322c1.279,0,2.231,0.665,2.231,0.665   c0.079,0.039,0.235,0.196,0.079,0.443c-0.052,0.079-0.104,0.17-0.156,0.248c-0.117,0.183-0.249,0.235-0.457,0.118   c-0.091-0.053-0.913-0.6-1.709-0.6c-1.383,0-1.8,0.887-1.8,1.435c0,0.874,0.665,1.383,1.761,1.839   c1.762,0.718,2.896,1.383,2.896,2.897c0,1.355-1.291,2.348-2.818,2.348c-1.539,0-2.583-0.9-2.752-1.057   C131.991,57.829,131.86,57.724,132.017,57.477"/>
	<path fill="#004272" d="M141.83,49.963c0-0.131,0.118-0.248,0.248-0.248h0.522c0.131,0,0.248,0.117,0.248,0.248v8.635   c0,0.131-0.117,0.248-0.248,0.248h-0.522c-0.13,0-0.248-0.117-0.248-0.248V49.963z"/>
	<path fill="#004272" d="M149.07,50.589h-2.27c-0.144,0-0.247-0.118-0.247-0.248v-0.378c0-0.131,0.103-0.248,0.247-0.248h5.532   c0.144,0,0.247,0.117,0.247,0.248v0.378c0,0.13-0.104,0.248-0.247,0.248h-2.271v8.009c0,0.131-0.117,0.248-0.248,0.248h-0.496   c-0.129,0-0.248-0.117-0.248-0.248V50.589z"/>
	<path fill="#004272" d="M157.919,48.344c-0.053-0.104,0-0.208,0.077-0.248l1.957-1.095c0.08-0.053,0.275-0.079,0.34,0.039   l0.234,0.469c0.053,0.104,0.026,0.235-0.078,0.274l-2.1,0.875c-0.184,0.078-0.248,0.078-0.301-0.027L157.919,48.344z    M156.287,49.963c0-0.131,0.104-0.248,0.248-0.248h5.141c0.144,0,0.248,0.117,0.248,0.248v0.378c0,0.13-0.104,0.248-0.248,0.248   h-4.383v3.183h3.743c0.13,0,0.249,0.117,0.249,0.248v0.379c0,0.143-0.119,0.247-0.249,0.247h-3.743v3.327h4.383   c0.144,0,0.248,0.116,0.248,0.248v0.377c0,0.131-0.104,0.248-0.248,0.248h-5.141c-0.144,0-0.248-0.117-0.248-0.248V49.963z"/>
	<path fill="#004272" d="M174.518,54.567c1.068,0,1.981-0.874,1.981-1.996c0-1.057-0.913-1.865-1.981-1.865h-2.075v3.861H174.518z    M171.45,49.963c0-0.131,0.104-0.248,0.249-0.248h2.883c1.605,0,2.922,1.305,2.922,2.883c0,1.617-1.316,2.936-2.91,2.936h-2.151   v3.064c0,0.131-0.118,0.248-0.247,0.248h-0.496c-0.145,0-0.249-0.117-0.249-0.248V49.963z"/>
	<path fill="#004272" d="M186.052,55.743c-0.64-1.423-1.265-2.857-1.905-4.28h-0.104l-1.905,4.28H186.052z M179.855,58.507   l3.965-8.78c0.039-0.079,0.104-0.144,0.222-0.144h0.13c0.119,0,0.184,0.065,0.223,0.144l3.939,8.78   c0.079,0.17-0.025,0.339-0.222,0.339h-0.522c-0.117,0-0.195-0.078-0.221-0.144l-0.967-2.152h-4.631l-0.951,2.152   c-0.027,0.065-0.104,0.144-0.223,0.144h-0.521C179.881,58.846,179.776,58.677,179.855,58.507"/>
	<path fill="#004272" d="M195.592,54.411c1.003,0,1.877-0.834,1.877-1.904c0-0.992-0.874-1.839-1.877-1.839h-2.533v3.744H195.592z    M192.029,49.963c0-0.131,0.104-0.248,0.248-0.248h3.379c1.564,0,2.844,1.226,2.844,2.779c0,1.2-0.795,2.204-1.932,2.661   l1.788,3.314c0.091,0.168,0,0.377-0.222,0.377h-0.666c-0.115,0-0.183-0.065-0.207-0.117l-1.736-3.457h-2.491v3.326   c0,0.131-0.118,0.248-0.249,0.248h-0.508c-0.145,0-0.248-0.117-0.248-0.248V49.963z"/>
	<path fill="#004272" d="M202.926,49.963c0-0.131,0.117-0.248,0.247-0.248h0.522c0.129,0,0.247,0.117,0.247,0.248v8.635   c0,0.131-0.118,0.248-0.247,0.248h-0.522c-0.13,0-0.247-0.117-0.247-0.248V49.963z"/>
	<path fill="#004272" d="M208.288,57.477c0.065-0.078,0.131-0.17,0.195-0.248c0.131-0.169,0.274-0.274,0.456-0.117   c0.092,0.078,1.045,0.991,2.205,0.991c1.057,0,1.748-0.665,1.748-1.435c0-0.901-0.781-1.436-2.282-2.062   c-1.436-0.625-2.296-1.212-2.296-2.7c0-0.887,0.703-2.322,2.778-2.322c1.279,0,2.23,0.665,2.23,0.665   c0.079,0.039,0.235,0.196,0.079,0.443c-0.053,0.079-0.104,0.17-0.157,0.248c-0.117,0.183-0.247,0.235-0.456,0.118   c-0.092-0.053-0.913-0.6-1.709-0.6c-1.383,0-1.801,0.887-1.801,1.435c0,0.874,0.665,1.383,1.762,1.839   c1.762,0.718,2.896,1.383,2.896,2.897c0,1.355-1.292,2.348-2.818,2.348c-1.539,0-2.582-0.9-2.752-1.057   C208.262,57.829,208.132,57.724,208.288,57.477"/>
	<path fill="#004272" d="M223.881,51.593l-0.939,0.731c-0.104,0.078-0.208,0.092-0.299-0.013l-0.248-0.274   c-0.092-0.104-0.039-0.222,0.025-0.287l1.826-1.775h0.354c0.13,0,0.234,0.118,0.234,0.249v8.375c0,0.131-0.104,0.248-0.234,0.248   h-0.471c-0.144,0-0.248-0.117-0.248-0.248V51.593z"/>
</g>
<style id="stylish-2" class="stylish" type="text/css"></style><style id="stylish-4" class="stylish" type="text/css">.body_frontend .block_2 {
display: none;
}</style></svg>